<svg width="40" height="40" viewBox="0 0 40 40" fill="none" xmlns="http://www.w3.org/2000/svg">
<path d="M12.5503 39.04C12.4903 39.04 12.4203 39.03 12.3703 39C12.1903 38.92 12.0503 38.77 12.0503 38.58C12.0603 36.6 12.0703 34.67 12.1003 32.72C12.1003 32.53 12.0403 32.45 11.8503 32.4C10.1903 31.93 8.82033 31.07 7.77033 29.85C6.97033 28.92 6.39033 27.81 6.03033 26.56C6.03033 26.55 6.02033 26.53 6.02033 26.52L5.99033 26.42C5.74033 25.72 5.62033 25 5.54033 24.38C5.20033 21.95 5.31033 19.5 5.46033 17.2C5.55033 15.68 5.85033 14.22 6.34033 12.87C7.21033 10.47 8.80033 8.85 11.1803 7.91C12.6603 7.33 14.2903 6.94 16.1703 6.71C18.4003 6.44 20.5903 6.51 22.4403 6.62C24.6503 6.75 26.8003 7.17 28.8203 7.88C31.3003 8.75 32.9103 10.41 33.7403 12.95C34.1703 14.28 34.4503 15.67 34.5803 17.19C34.6903 18.33 34.7203 19.31 34.6703 20.19L34.6403 20.82C34.6303 21.16 34.6203 21.51 34.5903 21.85L34.5703 22.18C34.5103 23.06 34.4403 24.06 34.2803 25.01C34.0503 26.49 33.6003 27.74 32.9003 28.86C32.8703 28.91 32.8203 28.97 32.7803 29.04L32.6903 29.16C32.2703 29.82 31.6803 30.42 30.9203 30.97C29.7703 31.8 28.5003 32.2 27.2903 32.5C25.6303 32.92 23.8703 33.2 21.9003 33.34C20.6303 33.43 19.3403 33.44 18.0603 33.37C17.7603 33.35 17.6103 33.42 17.4203 33.66C17.1903 33.97 16.9303 34.27 16.6703 34.57C16.4403 34.83 16.2303 35.07 16.0303 35.33C15.7603 35.67 15.4803 35.99 15.1903 36.31C14.9503 36.58 14.7303 36.83 14.5203 37.09C14.1503 37.55 13.5703 38.23 12.9303 38.9C12.8303 38.99 12.6803 39.04 12.5503 39.04ZM7.01033 26.34C7.32033 27.43 7.83033 28.39 8.52033 29.19C9.44033 30.26 10.6503 31.01 12.1103 31.43C12.7303 31.6 13.0903 32.08 13.0903 32.72C13.0703 34.24 13.0603 35.76 13.0503 37.27C13.3203 36.96 13.5503 36.67 13.7403 36.45C13.9603 36.18 14.1903 35.93 14.4103 35.67C14.7103 35.34 14.9803 35.03 15.2403 34.71C15.4503 34.45 15.6703 34.19 15.9003 33.94C16.1603 33.65 16.4003 33.37 16.6203 33.08C17.0003 32.57 17.4503 32.36 18.1103 32.39C19.3603 32.45 20.6103 32.44 21.8303 32.36C23.7403 32.22 25.4403 31.96 27.0403 31.55C28.1503 31.27 29.3203 30.9 30.3303 30.17C30.9903 29.69 31.4903 29.18 31.8603 28.61L31.9703 28.45C32.0003 28.42 32.0203 28.39 32.0403 28.36C32.6703 27.35 33.0803 26.21 33.2903 24.87C33.4403 23.96 33.5103 22.99 33.5703 22.13L33.5903 21.8C33.6103 21.47 33.6303 21.14 33.6403 20.81L33.6703 20.17C33.7103 19.34 33.6803 18.4 33.5803 17.31C33.4503 15.86 33.1903 14.54 32.7803 13.29C32.0603 11.06 30.6503 9.61 28.4803 8.85C26.5503 8.17 24.5003 7.77 22.3803 7.64C20.5703 7.53 18.4303 7.46 16.2803 7.72C14.4803 7.94 12.9303 8.31 11.5303 8.86C9.43033 9.68 8.03033 11.11 7.26033 13.23C6.80033 14.49 6.52033 15.85 6.44033 17.28C6.31033 19.5 6.20033 21.9 6.52033 24.24C6.60033 24.81 6.71033 25.47 6.92033 26.09L6.98033 26.25C7.00033 26.28 7.00033 26.31 7.01033 26.34Z" fill="#58595B"/>
<path d="M24.7807 19.06C24.7907 19.31 24.9407 19.46 25.1607 19.46C25.3707 19.46 25.5407 19.3 25.5507 19.07C25.5607 18.96 25.5507 18.85 25.5507 18.74C25.4307 16.65 24.4807 15.12 22.5307 14.28C21.9407 14.02 21.3107 13.92 20.6707 13.86C20.4407 13.84 20.2207 14 20.1807 14.21C20.1507 14.37 20.3507 14.59 20.5607 14.63C20.8507 14.69 21.1507 14.69 21.4507 14.75C23.1407 15.1 24.3507 16.3 24.7007 17.98C24.7607 18.33 24.7707 18.69 24.7807 19.06Z" fill="#58595B"/>
<path d="M25.6804 23.26C25.1404 22.83 24.5604 22.45 23.9504 22.12C23.4404 21.85 22.8304 21.95 22.5104 22.34C22.3204 22.57 22.1604 22.82 21.9704 23.04C21.8204 23.22 21.4004 23.38 21.1504 23.32C20.0604 23.02 19.1104 22.47 18.3204 21.66C17.5304 20.84 16.9504 19.89 16.5704 18.82C16.4104 18.36 16.5104 18.02 16.9004 17.71C17.0404 17.6 17.1704 17.48 17.3204 17.38C17.8904 17 17.9704 16.27 17.6304 15.69C17.1204 14.8 16.5104 13.99 15.8504 13.21C15.5204 12.81 15.0804 12.68 14.6104 12.91C13.8304 13.3 13.1704 13.85 12.7404 14.63C12.5104 15.05 12.4804 15.5 12.6404 15.96C12.9204 16.8 13.3104 17.58 13.7104 18.36C14.5604 20.01 15.5704 21.56 16.8804 22.88C17.5704 23.58 18.3304 24.18 19.1204 24.76C19.1304 24.77 19.1504 24.77 19.1604 24.78C20.6804 25.78 22.2504 26.66 23.9704 27.26C24.1204 27.31 24.2804 27.32 24.4304 27.31C24.7804 27.28 25.0904 27.13 25.3904 26.96C25.4204 26.93 25.4504 26.91 25.4804 26.88C26.0304 26.44 26.4904 25.91 26.8104 25.27C27.0504 24.78 26.9304 24.29 26.5204 23.96C26.2504 23.72 25.9704 23.49 25.6804 23.26Z" fill="#58595B"/>
<path d="M25.6405 14.46C24.1505 12.76 22.2405 11.98 20.0005 11.95C19.7405 11.95 19.5605 12.12 19.5605 12.35C19.5605 12.57 19.7305 12.72 19.9905 12.73C20.4005 12.75 20.8005 12.77 21.2005 12.84C24.2105 13.34 26.7405 15.8 26.6705 19.8C26.6705 20 26.8305 20.19 27.0405 20.2C27.2605 20.21 27.4305 20.07 27.4405 19.85C27.4405 19.73 27.4405 19.6 27.4405 19.48C27.4505 19.13 27.4005 18.78 27.3605 18.43C27.1605 16.95 26.6405 15.6 25.6405 14.46Z" fill="#58595B"/>
<path d="M21.1507 15.8C20.9407 15.81 20.7807 15.95 20.7607 16.15C20.7407 16.35 20.8807 16.52 21.0907 16.56C21.1807 16.58 21.2807 16.59 21.3807 16.59C22.1007 16.66 22.6007 17.05 22.8107 17.71C22.8807 17.93 22.9107 18.15 22.9207 18.38C22.9307 18.55 22.9807 18.69 23.1407 18.77C23.2707 18.84 23.4107 18.83 23.5307 18.75C23.6907 18.65 23.7207 18.49 23.6907 18.32C23.6907 18.09 23.6507 17.87 23.6007 17.66C23.3207 16.52 22.3207 15.76 21.1507 15.8Z" fill="#58595B"/>
</svg>
